<svg width="67" height="67" viewBox="0 0 67 67" fill="none" xmlns="http://www.w3.org/2000/svg">
<g clip-path="url(#clip0_1159_2366)">
<path d="M21.6386 13.9359C21.4302 14.1444 21.272 14.3956 21.1399 14.6711L21.125 14.6562L0.250744 61.679L0.271216 61.6995C-0.115895 62.4495 0.531772 63.9756 1.85874 65.3045C3.18572 66.6314 4.71183 67.2791 5.46185 66.892L5.48047 66.9106L52.5033 46.0345L52.4884 46.0178C52.762 45.8875 53.0132 45.7293 53.2235 45.5171C56.1306 42.6101 51.4164 33.1836 42.6971 24.4624C33.9741 15.7412 24.5475 11.0289 21.6386 13.9359Z" fill="#DD2E44"/>
<path d="M24.1958 22.3335L0.775578 60.4974L0.250744 61.6792L0.271216 61.6997C-0.115895 62.4497 0.531772 63.9759 1.85874 65.3047C2.29052 65.7365 2.73905 66.064 3.17827 66.3413L31.6402 31.6391L24.1958 22.3335Z" fill="#EA596E"/>
<path d="M42.8288 24.3173C51.5202 33.0124 56.346 42.2807 53.6027 45.0203C50.8613 47.7636 41.593 42.9396 32.896 34.2482C24.2028 25.5531 19.3788 16.281 22.1202 13.5396C24.8635 10.7982 34.1318 15.6222 42.8288 24.3173Z" fill="#A0041E"/>
<path d="M34.5991 25.3281C34.2287 25.6277 33.7448 25.7841 33.233 25.7282C31.6176 25.5533 30.2589 24.9912 29.3079 24.1035C28.3011 23.1636 27.8041 21.9018 27.94 20.6381C28.1782 18.4196 30.4041 16.3836 34.1989 16.793C35.6748 16.9512 36.3336 16.4767 36.3559 16.2496C36.382 16.0244 35.8404 15.4195 34.3646 15.2595C32.7491 15.0845 31.3905 14.5225 30.4376 13.6347C29.4308 12.6949 28.932 11.433 29.0697 10.1693C29.3116 7.9509 31.5357 5.91484 35.3268 6.32615C36.4025 6.44154 36.9701 6.22007 37.2102 6.07676C37.4019 5.95951 37.4782 5.84784 37.4856 5.7827C37.508 5.55751 36.9738 4.95265 35.4942 4.79259C34.4725 4.68093 33.7318 3.76526 33.8453 2.74165C33.9551 1.7199 34.8689 0.981038 35.8944 1.0927C39.6855 1.50029 41.4275 3.96254 41.1874 6.18284C40.9454 8.40501 38.7214 10.4373 34.9266 10.0298C33.8509 9.91251 33.2888 10.1358 33.0469 10.2791C32.8552 10.3945 32.777 10.5081 32.7696 10.5713C32.7454 10.7984 33.2833 11.4014 34.7628 11.5615C38.5539 11.9709 40.2959 14.4313 40.0558 16.6516C39.8158 18.87 37.5917 20.9061 33.7988 20.4948C32.7231 20.3794 32.1573 20.6027 31.9153 20.7442C31.7218 20.8633 31.6473 20.975 31.6399 21.0382C31.6157 21.2634 32.1536 21.8683 33.6313 22.0283C34.6512 22.14 35.3938 23.0575 35.2802 24.0793C35.2281 24.5892 34.9694 25.0303 34.5991 25.3281Z" fill="#AA8DD8"/>
<path d="M57.0622 42.5395C60.7341 41.5029 63.2671 43.1407 63.8701 45.2902C64.4731 47.438 63.1666 50.1571 59.4965 51.19C58.0634 51.592 57.6335 52.2769 57.6912 52.4946C57.7545 52.7142 58.4822 53.0753 59.9115 52.6714C63.5816 51.6385 66.1146 53.2763 66.7176 55.424C67.3243 57.5736 66.0141 60.2889 62.3421 61.3237C60.9109 61.7257 60.4792 62.4125 60.5424 62.6302C60.6039 62.848 61.3297 63.209 62.7609 62.807C63.7473 62.5297 64.7783 63.1048 65.0556 64.0931C65.3311 65.0832 64.756 66.1105 63.7659 66.3897C60.0976 67.4226 57.5628 65.7885 56.9561 63.6371C56.3531 61.4894 57.6614 58.774 61.3353 57.7392C62.7683 57.3354 63.1982 56.6523 63.135 56.4327C63.0754 56.215 62.3496 55.8521 60.9202 56.2541C57.2464 57.2888 54.7153 55.6548 54.1104 53.5015C53.5056 51.3537 54.8139 48.6384 58.4859 47.6017C59.9152 47.2016 60.3452 46.513 60.2856 46.2971C60.2223 46.0775 59.4984 45.7164 58.0672 46.1184C57.077 46.3976 56.0516 45.8207 55.7724 44.8324C55.4951 43.846 56.072 42.8187 57.0622 42.5395Z" fill="#77B255"/>
<path d="M42.808 37.52C42.2608 37.52 41.7211 37.2799 41.3526 36.822C40.7105 36.018 40.8426 34.8474 41.6429 34.2053C42.0486 33.8796 51.7264 26.2788 65.4037 28.2349C66.4218 28.38 67.129 29.3218 66.9838 30.3398C66.8386 31.356 65.9044 32.0706 64.877 31.918C52.7928 30.2021 44.0568 37.0435 43.9712 37.1124C43.625 37.3878 43.2156 37.52 42.808 37.52Z" fill="#AA8DD8"/>
<path d="M10.7087 29.7777C10.5319 29.7777 10.3513 29.7516 10.1727 29.6995C9.18814 29.4036 8.62981 28.367 8.92573 27.3825C11.0344 20.3605 12.9457 9.15473 10.597 6.23279C10.3346 5.90151 9.93817 5.57581 9.02995 5.64467C7.28423 5.77867 7.44987 9.46181 7.45173 9.49903C7.52989 10.5245 6.75939 11.4178 5.73578 11.4941C4.69542 11.5574 3.81698 10.8018 3.74067 9.77634C3.54898 7.20987 4.34739 2.26676 8.75078 1.93362C10.7161 1.78473 12.3483 2.46776 13.5003 3.90081C17.913 9.39295 13.4333 25.3148 12.4916 28.4526C12.2497 29.2585 11.5089 29.7777 10.7087 29.7777Z" fill="#77B255"/>
<path d="M47.4596 20.472C49.0014 20.472 50.2513 19.2221 50.2513 17.6803C50.2513 16.1385 49.0014 14.8887 47.4596 14.8887C45.9178 14.8887 44.668 16.1385 44.668 17.6803C44.668 19.2221 45.9178 20.472 47.4596 20.472Z" fill="#5C913B"/>
<path d="M3.72222 37.2223C5.77795 37.2223 7.44444 35.5558 7.44444 33.5001C7.44444 31.4443 5.77795 29.7778 3.72222 29.7778C1.6665 29.7778 0 31.4443 0 33.5001C0 35.5558 1.6665 37.2223 3.72222 37.2223Z" fill="#9266CC"/>
<path d="M60.487 39.0833C62.0288 39.0833 63.2786 37.8335 63.2786 36.2917C63.2786 34.7499 62.0288 33.5 60.487 33.5C58.9452 33.5 57.6953 34.7499 57.6953 36.2917C57.6953 37.8335 58.9452 39.0833 60.487 39.0833Z" fill="#5C913B"/>
<path d="M43.737 61.4168C45.2788 61.4168 46.5286 60.167 46.5286 58.6252C46.5286 57.0834 45.2788 55.8335 43.737 55.8335C42.1952 55.8335 40.9453 57.0834 40.9453 58.6252C40.9453 60.167 42.1952 61.4168 43.737 61.4168Z" fill="#5C913B"/>
<path d="M52.1128 11.1666C54.1686 11.1666 55.8351 9.50012 55.8351 7.44439C55.8351 5.38866 54.1686 3.72217 52.1128 3.72217C50.0571 3.72217 48.3906 5.38866 48.3906 7.44439C48.3906 9.50012 50.0571 11.1666 52.1128 11.1666Z" fill="#FFCC4D"/>
<path d="M60.487 18.6112C62.0288 18.6112 63.2786 17.3613 63.2786 15.8195C63.2786 14.2777 62.0288 13.0278 60.487 13.0278C58.9452 13.0278 57.6953 14.2777 57.6953 15.8195C57.6953 17.3613 58.9452 18.6112 60.487 18.6112Z" fill="#FFCC4D"/>
<path d="M54.901 26.0555C56.4428 26.0555 57.6927 24.8056 57.6927 23.2638C57.6927 21.722 56.4428 20.4722 54.901 20.4722C53.3592 20.4722 52.1094 21.722 52.1094 23.2638C52.1094 24.8056 53.3592 26.0555 54.901 26.0555Z" fill="#FFCC4D"/>
<path d="M13.9596 46.5277C15.5014 46.5277 16.7513 45.2778 16.7513 43.736C16.7513 42.1942 15.5014 40.9443 13.9596 40.9443C12.4178 40.9443 11.168 42.1942 11.168 43.736C11.168 45.2778 12.4178 46.5277 13.9596 46.5277Z" fill="#FFCC4D"/>
</g>
<defs>
<clipPath id="clip0_1159_2366">
<rect width="67" height="67" fill="white"/>
</clipPath>
</defs>
</svg>
