<svg width="31" height="31" viewBox="0 0 31 31" fill="none" xmlns="http://www.w3.org/2000/svg">
<path d="M19.8867 3.56913C21.7135 5.39814 22.8569 7.79898 23.1256 10.37C23.3942 12.9411 22.7719 15.5264 21.3627 17.6936C21.6087 17.8986 21.8137 18.1241 22.1007 18.3291C22.5107 18.6571 23.0642 19.0671 23.7612 19.5386C24.4582 20.0306 24.9092 20.3381 25.1142 20.5021C25.9752 21.1376 26.6107 21.6706 27.0412 22.1011C27.6972 22.7571 28.2712 23.4336 28.7632 24.1511C29.2757 24.8686 29.6652 25.5656 29.9727 26.2831C30.2597 27.0006 30.4032 27.6771 30.3417 28.3331C30.3007 28.9891 30.0547 29.5426 29.6037 29.9936C29.1527 30.4446 28.5992 30.6906 27.9432 30.7316C27.3077 30.7726 26.6107 30.6496 25.9137 30.3421C25.1962 30.0551 24.4787 29.6451 23.7817 29.1326C23.0642 28.6406 22.3877 28.0666 21.7317 27.4106C21.3012 26.9801 20.7682 26.3446 20.1532 25.5041C19.9482 25.2376 19.6407 24.7866 19.1897 24.1511C18.7387 23.4951 18.3697 22.9826 18.0417 22.5521C17.7137 22.1421 17.4472 21.8346 17.1397 21.5271C15.0119 22.6413 12.584 23.0472 10.2095 22.6859C7.835 22.3246 5.63778 21.2148 3.93771 19.5181C-0.449289 15.1106 -0.449289 7.95613 3.93771 3.56913C4.98449 2.5211 6.22758 1.68968 7.59591 1.12242C8.96424 0.555162 10.431 0.263184 11.9122 0.263184C13.3935 0.263184 14.8602 0.555162 16.2285 1.12242C17.5968 1.68968 18.8399 2.5211 19.8867 3.56913V3.56913ZM16.9962 16.6071C18.3354 15.2581 19.087 13.4343 19.087 11.5334C19.087 9.63247 18.3354 7.80866 16.9962 6.45963C16.3306 5.79207 15.5399 5.26241 14.6692 4.90102C13.7985 4.53963 12.8651 4.3536 11.9225 4.3536C10.9798 4.3536 10.0464 4.53963 9.17572 4.90102C8.30507 5.26241 7.5143 5.79207 6.84871 6.45963C6.18115 7.12521 5.6515 7.91599 5.29011 8.78664C4.92871 9.65729 4.74269 10.5907 4.74269 11.5334C4.74269 12.4761 4.92871 13.4095 5.29011 14.2801C5.6515 15.1508 6.18115 15.9415 6.84871 16.6071C7.5143 17.2747 8.30507 17.8043 9.17572 18.1657C10.0464 18.5271 10.9798 18.7132 11.9225 18.7132C12.8651 18.7132 13.7985 18.5271 14.6692 18.1657C15.5399 17.8043 16.3306 17.2747 16.9962 16.6071V16.6071Z" fill="#F8F8F8"/>
</svg>
